<svg width="75" height="72" viewBox="0 0 75 72" fill="none" xmlns="http://www.w3.org/2000/svg">
<path d="M26.9805 8.10625H27.3371L27.4533 7.76915C28.9443 3.4425 32.9523 0.564819 37.4504 0.564819C41.9478 0.564819 45.958 3.44228 47.4858 7.77261L47.6035 8.10625H47.9573H70.3647V14.6477H63.6249H62.8761L63.1631 15.3393L74.1035 41.7053C74.5968 43.5108 74.6119 45.056 74.2479 46.357C73.883 47.6612 73.128 48.7533 72.0275 49.6369C69.8088 51.4182 66.1766 52.3548 61.5829 52.3548C56.9901 52.3548 53.4433 51.4185 51.2671 49.6397C49.1429 47.9033 48.2443 45.2964 49.0664 41.6956L60.0028 15.3393L60.2898 14.6477H59.541H47.9202H47.5723L47.4514 14.9739C46.3127 18.0458 44.0041 20.3888 40.9845 21.5434L40.6631 21.6663V22.0104V64.167V64.667H41.1631H74.0774V71.2084H0.82334V64.667H33.7377H34.2377V64.167V22.0481V21.7078L33.9211 21.5829C30.8976 20.3908 28.5862 18.0449 27.4105 14.9691L27.2876 14.6477H26.9434H15.3598H14.611L14.898 15.3393L25.8384 41.7053C26.3317 43.5108 26.3468 45.056 25.9827 46.357C25.6178 47.6612 24.8629 48.7533 23.7623 49.6369C21.5436 51.4182 17.9115 52.3548 13.3178 52.3548C8.72491 52.3548 5.17817 51.4185 3.00199 49.6397C0.877725 47.9033 -0.0208698 45.2965 0.801234 41.6956L11.7376 15.3393L12.0246 14.6477H11.2758H4.53604V8.10625H26.9805ZM13.783 27.2193L13.3178 26.0381L12.8526 27.2193L7.28353 41.3595L7.01444 42.0427H7.74875H18.8869H19.6212L19.3521 41.3595L13.783 27.2193ZM62.0482 27.2193L61.5829 26.0381L61.1177 27.2193L55.5487 41.3595L55.2796 42.0427H56.0139H67.152H67.8863L67.6172 41.3595L62.0482 27.2193ZM40.4319 8.35986C39.6425 7.55811 38.5702 7.10625 37.4504 7.10625C36.3306 7.10625 35.2582 7.55811 34.4688 8.35986C33.6797 9.16135 33.2377 10.2468 33.2377 11.377C33.2377 12.5071 33.6797 13.5926 34.4688 14.3941C35.2582 15.1958 36.3306 15.6477 37.4504 15.6477C38.5702 15.6477 39.6425 15.1958 40.4319 14.3941C41.2211 13.5926 41.6631 12.5071 41.6631 11.377C41.6631 10.2468 41.2211 9.16135 40.4319 8.35986Z" fill="white" stroke="black"/>
</svg>
