<svg width="38" height="40" viewBox="0 0 38 40" fill="none" xmlns="http://www.w3.org/2000/svg">
<path d="M18.7891 8.33325C10.2651 8.33325 5.5287 15.3899 3.84551 18.5266C3.49948 19.1699 3.32724 19.4933 3.34447 19.9733C3.36482 20.4533 3.56837 20.7666 3.9739 21.3933C5.97807 24.4899 11.4206 31.6666 18.7891 31.6666C26.1576 31.6666 31.6001 24.4899 33.6043 21.3933C34.0114 20.7666 34.215 20.4533 34.2322 19.9733C34.251 19.4933 34.0787 19.1699 33.7327 18.5266C32.0511 15.3899 27.3131 8.33325 18.7891 8.33325Z" stroke="#335D87" stroke-width="2"/>
<path d="M18.7891 26.6666C22.2481 26.6666 25.0521 23.6818 25.0521 19.9999C25.0521 16.318 22.2481 13.3333 18.7891 13.3333C15.3301 13.3333 12.5261 16.318 12.5261 19.9999C12.5261 23.6818 15.3301 26.6666 18.7891 26.6666Z" fill="#335D87"/>
</svg>
