<svg width="38" height="28" viewBox="0 0 38 28" fill="none" xmlns="http://www.w3.org/2000/svg">
<path d="M30.4062 7.125L29.4088 7.05297L29.4088 7.05314L30.4062 7.125ZM20.0938 7.125L21.0913 7.05438L21.0912 7.05427L20.0938 7.125ZM14.0359 25.2039L15.0062 25.4459L15.0063 25.4456L14.0359 25.2039ZM36.4648 25.2039L35.4936 25.442L35.4938 25.4426L36.4648 25.2039ZM14.625 8.52656L13.6276 8.4547V8.4547L14.625 8.52656ZM6.34375 8.52656L5.34624 8.59712L5.34625 8.59718L6.34375 8.52656ZM14.6772 18.8154C15.1793 19.0454 15.7728 18.8249 16.0029 18.3228C16.2329 17.8207 16.0124 17.2272 15.5103 16.9971L14.6772 18.8154ZM1.52734 22.9648L0.557032 22.723L0.55669 22.7244L1.52734 22.9648ZM11.0313 25C11.5835 25 12.0313 24.5523 12.0313 24C12.0313 23.4477 11.5835 23 11.0313 23V25ZM29.4088 7.05314C29.2079 9.84286 27.1702 11.75 25.25 11.75V13.75C28.4704 13.75 31.1468 10.7618 31.4037 7.19686L29.4088 7.05314ZM25.25 11.75C23.3288 11.75 21.2887 9.84262 21.0913 7.05438L19.0962 7.19562C19.3488 10.7636 22.0306 13.75 25.25 13.75V11.75ZM21.0912 7.05427C20.9921 5.6567 21.4267 4.53074 22.1524 3.75703C22.8805 2.98062 23.9569 2.5 25.25 2.5V0.5C23.447 0.5 21.8281 1.17915 20.6935 2.38887C19.5565 3.6013 18.961 5.28784 19.0963 7.19573L21.0912 7.05427ZM25.25 2.5C27.7659 2.5 29.6014 4.38724 29.4088 7.05297L31.4037 7.19703C31.6799 3.37214 28.9263 0.5 25.25 0.5V2.5ZM25.25 16.75C19.8956 16.75 14.4444 19.426 13.0656 24.9622L15.0063 25.4456C16.0806 21.1318 20.4216 18.75 25.25 18.75V16.75ZM13.0657 24.9619C12.7804 26.1059 13.4958 27.5 14.9516 27.5V25.5C14.9486 25.5 14.9511 25.4997 14.9579 25.5014C14.9645 25.5031 14.9725 25.506 14.9807 25.5105C14.9978 25.5198 15.0059 25.5299 15.0078 25.5326C15.0099 25.5357 14.991 25.5068 15.0062 25.4459L13.0657 24.9619ZM14.9516 27.5H35.5492V25.5H14.9516V27.5ZM35.5492 27.5C37.0084 27.5 37.7156 26.1029 37.4359 24.9652L35.4938 25.4426C35.5092 25.5056 35.4898 25.536 35.4917 25.5333C35.4935 25.5307 35.5018 25.5203 35.5192 25.5108C35.5276 25.5062 35.5358 25.5032 35.5426 25.5014C35.5495 25.4997 35.5522 25.5 35.5492 25.5V27.5ZM37.4361 24.9658C36.0573 19.3409 30.5959 16.75 25.25 16.75V18.75C30.0884 18.75 34.4193 21.0591 35.4936 25.442L37.4361 24.9658ZM13.6276 8.4547C13.4723 10.6104 11.8824 12.0625 10.4844 12.0625V14.0625C13.1926 14.0625 15.4121 11.5177 15.6224 8.59842L13.6276 8.4547ZM10.4844 12.0625C9.08531 12.0625 7.49375 10.6102 7.34126 8.45595L5.34625 8.59718C5.55312 11.5195 7.7772 14.0625 10.4844 14.0625V12.0625ZM7.34126 8.45601C7.19568 6.39785 8.58793 5 10.4844 5V3C7.43395 3 5.11838 5.37559 5.34624 8.59712L7.34126 8.45601ZM10.4844 5C12.3742 5 13.7728 6.4394 13.6276 8.4547L15.6224 8.59843C15.8506 5.43091 13.5414 3 10.4844 3V5ZM15.5103 16.9971C13.9333 16.2746 12.2283 16.0117 10.4844 16.0117V18.0117C12.0327 18.0117 13.4339 18.2457 14.6772 18.8154L15.5103 16.9971ZM10.4844 16.0117C6.15906 16.0117 1.68984 18.1782 0.557033 22.723L2.49766 23.2067C3.32578 19.8843 6.6847 18.0117 10.4844 18.0117V16.0117ZM0.55669 22.7244C0.306076 23.7359 0.938818 25 2.25938 25V23C2.29015 23 2.33404 23.0084 2.37902 23.0328C2.42218 23.0563 2.45207 23.0867 2.47042 23.1136C2.5055 23.1649 2.49914 23.2007 2.498 23.2053L0.55669 22.7244ZM2.25938 25H11.0313V23H2.25938V25Z" fill="#335D87"/>
</svg>
