<svg width="59" height="40" viewBox="0 0 59 40" fill="none" xmlns="http://www.w3.org/2000/svg">
<path d="M42.9936 1L44.056 4.05517C45.4461 8.05717 46.1447 10.0582 47.5132 11.5187C48.8889 12.9792 50.7687 13.7228 54.5284 15.2025L57.3986 16.3333L54.5284 17.4642C50.7687 18.9438 48.8889 19.6875 47.5168 21.1442C46.1447 22.6085 45.4461 24.6095 44.056 28.6115L42.9936 31.6667L41.9313 28.6115C40.5412 24.6095 39.8425 22.6085 38.4741 21.148C37.0984 19.6875 35.2186 18.9438 31.4589 17.4642L28.5887 16.3333L31.4589 15.2025C35.2186 13.7228 37.0984 12.9792 38.4705 11.5225C39.8426 10.0582 40.5412 8.05717 41.9313 4.05517L42.9936 1ZM11.835 15.2025L12.6309 17.491C13.6753 20.4963 14.1975 21.999 15.2238 23.0915C16.2538 24.1878 17.6655 24.7437 20.4888 25.8515L22.6388 26.7025L20.4888 27.5497C17.6655 28.6613 16.2538 29.2172 15.2274 30.3097C14.1975 31.406 13.6753 32.9087 12.6345 35.914L11.835 38.2025L11.0392 35.914C9.99481 32.9087 9.47263 31.406 8.44627 30.3135C7.41632 29.2172 6.00463 28.6613 3.18125 27.5535L1.03131 26.7025L3.18125 25.8553C6.00463 24.7437 7.41632 24.1878 8.44267 23.0953C9.47263 21.999 9.99481 20.4963 11.0356 17.491L11.835 15.2025Z" stroke="#335D87" stroke-width="2" stroke-linecap="round" stroke-linejoin="round"/>
</svg>
