<svg width="61" height="49" viewBox="0 0 61 49" fill="none" xmlns="http://www.w3.org/2000/svg">
<path d="M60 17.0271L60 23.875H36.625V20.625C36.625 19.9951 36.3748 19.391 35.9294 18.9456C35.484 18.5002 34.8799 18.25 34.25 18.25H26.75C26.1201 18.25 25.516 18.5002 25.0706 18.9456C24.6252 19.391 24.375 19.9951 24.375 20.625V23.875H1.00003L1.00004 17.0437L1.00002 17.0408C0.998977 16.8599 1.03366 16.6805 1.10209 16.513C1.1704 16.3457 1.27099 16.1936 1.39813 16.0653C1.39834 16.065 1.39856 16.0648 1.39877 16.0646L9.04588 8.39874C9.04616 8.39847 9.04643 8.3982 9.04671 8.39792C9.17501 8.27087 9.32709 8.17033 9.49426 8.10205L9.3052 7.63918L9.49426 8.10205C9.66179 8.03363 9.84118 7.99894 10.0221 7.99999V8H10.025H19.25H19.75V7.5V3.84375V3.82661L19.7488 3.80951C19.7204 3.39577 19.7754 2.98053 19.9103 2.58839C20.0453 2.19624 20.2575 1.83517 20.5346 1.52654C20.8116 1.2179 21.1477 0.967994 21.523 0.791602L21.3111 0.340605L21.523 0.791601C21.8955 0.616551 22.2991 0.517435 22.7102 0.5H37.9897C38.8397 0.536243 39.6416 0.904314 40.2233 1.52539C40.8072 2.1488 41.1222 2.977 41.1002 3.83085L41.1 3.83085V3.84375V7.5V8H41.6H50.9738C51.3339 8.00176 51.6788 8.14466 51.9346 8.398C51.9349 8.39825 51.9351 8.39849 51.9354 8.39874L59.6012 16.0646C59.6015 16.0649 59.6018 16.0652 59.6021 16.0654C59.8554 16.3213 59.9983 16.6662 60 17.0263C60 17.0265 60 17.0268 60 17.0271ZM38 8H38.5V7.5V3.75V3.25H38H23H22.5V3.75V7.5V8H23H38ZM28 21.875H33V30.625H28V21.875ZM35.9294 33.5544C36.3748 33.109 36.625 32.5049 36.625 31.875V28.625H60V45C60 45.8619 59.6576 46.6886 59.0481 47.2981C58.4386 47.9076 57.612 48.25 56.75 48.25H4.25004C3.38809 48.25 2.56144 47.9076 1.95195 47.2981C1.34245 46.6886 1.00004 45.8619 1.00004 45V28.625H24.375V31.875C24.375 32.5049 24.6252 33.109 25.0706 33.5544C25.516 33.9998 26.1201 34.25 26.75 34.25H34.25C34.8799 34.25 35.484 33.9998 35.9294 33.5544Z" fill="white" stroke="black"/>
</svg>
