<?xml version="1.0" encoding="UTF-8"?>
<svg id="Layer_1" data-name="Layer 1" xmlns="http://www.w3.org/2000/svg" viewBox="0 0 1430.44 996.08">
  <defs>
    <style>
      .cls-1 {
        fill: #020203;
      }

      .cls-2 {
        fill: #4d4a49;
      }

      .cls-3 {
        fill: #f6f7f6;
      }

      .cls-4 {
        fill: #2f4a83;
      }

      .cls-5 {
        fill: #100d0f;
      }

      .cls-6 {
        fill: #fff;
        stroke: #020203;
        stroke-miterlimit: 10;
        stroke-width: .25px;
      }

      .cls-7 {
        fill: #aaa79f;
      }
    </style>
  </defs>
  <g>
    <path class="cls-4" d="m369.51,0c78.86-.05,146.58,19.87,203.17,59.73,56.58,39.87,99.43,96.58,128.55,170.13,29.11,73.54,43.71,159.94,43.79,259.17.06,73.35-7.84,140.02-23.71,200-15.87,59.98-39.69,111.98-71.46,156.01-31.8,44.03-70.85,77.72-117.18,101.04-46.33,23.33-99.41,35.02-159.24,35.06-59.48.04-112.76-11.89-159.82-35.81-47.06-23.91-86.35-57.63-117.86-101.2-31.51-43.55-55.33-95.96-71.46-157.21C8.15,625.66.06,559.43,0,488.24c-.06-72.91,8.26-139.8,24.99-200.66,16.73-60.84,40.99-112.63,72.77-155.36,31.78-42.75,70.5-75.45,116.13-98.13C259.53,11.4,311.4.04,369.51,0m219.34,487.84c-.06-69.46-9.1-129.63-27.13-180.54-18.02-50.91-43.74-89.4-77.14-115.48-33.41-26.08-71.71-39.11-114.95-39.08-30.79.02-59.22,7.28-85.32,21.74-26.11,14.47-48.58,35.53-67.4,63.15-18.83,27.62-33.67,62.91-44.53,105.85-10.85,42.94-16.26,91.16-16.22,144.65.04,53.94,5.54,102.69,16.46,146.25,10.93,43.59,26.35,79.7,46.26,108.37,19.91,28.68,42.75,50.14,68.54,64.35,25.78,14.23,54.05,21.33,84.85,21.31,39.43-.03,75.64-12.35,108.65-36.96,33.01-24.62,59.27-62.6,78.77-113.97,19.5-51.35,29.22-114.58,29.16-189.65"/>
    <rect class="cls-7" x="728.77" y="714.04" width="655.77" height="7.49"/>
    <rect class="cls-2" x="738.69" y="694.82" width="675.42" height="11.72"/>
    <path class="cls-1" d="m619.64,674.4l-.13-153.73,68.39-.05c13.74,0,24.2,1.37,31.36,4.13,7.16,2.76,12.88,7.63,17.16,14.61,4.28,6.99,6.43,14.72,6.44,23.17,0,10.91-3.53,20.1-10.6,27.59-7.08,7.49-18.02,12.25-32.81,14.28,5.4,2.59,9.51,5.13,12.32,7.65,5.97,5.45,11.62,12.26,16.96,20.44l26.87,41.82-25.67.02-20.44-31.97c-5.96-9.22-10.88-16.28-14.75-21.18-3.86-4.89-7.32-8.31-10.37-10.27-3.05-1.95-6.16-3.31-9.32-4.09-2.32-.48-6.11-.73-11.36-.73l-23.68.02.06,68.27h-20.41Zm20.34-85.88l43.88-.03c9.33,0,16.62-.97,21.88-2.9,5.26-1.93,9.26-5,11.99-9.24,2.73-4.23,4.09-8.83,4.09-13.79,0-7.27-2.66-13.24-7.96-17.93-5.3-4.68-13.66-7.01-25.1-7l-48.82.03.04,50.86Z"/>
    <path class="cls-3" d="m619.64,674.4l-.13-153.73,68.39-.05c13.74,0,24.2,1.37,31.36,4.13,7.16,2.76,12.88,7.63,17.16,14.61,4.28,6.99,6.43,14.72,6.44,23.17,0,10.91-3.53,20.1-10.6,27.59-7.08,7.49-18.02,12.25-32.81,14.28,5.4,2.59,9.51,5.13,12.32,7.65,5.97,5.45,11.62,12.26,16.96,20.44l26.87,41.82-25.67.02-20.44-31.97c-5.96-9.22-10.88-16.28-14.75-21.18-3.86-4.89-7.32-8.31-10.37-10.27-3.05-1.95-6.16-3.31-9.32-4.09-2.32-.48-6.11-.73-11.36-.73l-23.68.02.06,68.27h-20.41Zm20.34-85.88l43.88-.03c9.33,0,16.62-.97,21.88-2.9,5.26-1.93,9.26-5,11.99-9.24,2.73-4.23,4.09-8.83,4.09-13.79,0-7.27-2.66-13.24-7.96-17.93-5.3-4.68-13.66-7.01-25.1-7l-48.82.03.04,50.86Z"/>
    <path class="cls-1" d="m784.87,674.29l-.13-153.73,57.87-.04c11.78,0,21.24,1.55,28.36,4.65,7.12,3.11,12.7,7.89,16.74,14.35,4.04,6.47,6.06,13.24,6.07,20.29,0,6.57-1.78,12.76-5.35,18.56-3.57,5.81-8.97,10.49-16.19,14.06,9.33,2.72,16.51,7.37,21.53,13.94,5.02,6.57,7.53,14.33,7.54,23.27,0,7.2-1.51,13.9-4.56,20.09-3.04,6.19-6.81,10.96-11.3,14.31-4.49,3.37-10.12,5.91-16.88,7.62-6.77,1.72-15.06,2.58-24.88,2.59l-58.81.04Zm20.33-89.15l33.35-.02c9.05,0,15.53-.6,19.46-1.8,5.19-1.54,9.1-4.09,11.73-7.66,2.63-3.57,3.94-8.04,3.94-13.42,0-5.1-1.24-9.6-3.7-13.48-2.46-3.87-5.97-6.53-10.52-7.96-4.56-1.43-12.38-2.14-23.46-2.13l-30.83.02.04,46.45Zm.06,70.99l38.4-.03c6.6,0,11.23-.25,13.89-.75,4.7-.84,8.62-2.25,11.78-4.2,3.16-1.96,5.74-4.81,7.78-8.55,2.03-3.74,3.04-8.06,3.04-12.95,0-5.73-1.48-10.71-4.43-14.94-2.95-4.23-7.04-7.2-12.26-8.9-5.23-1.71-12.75-2.57-22.57-2.56l-35.67.02.04,52.86Z"/>
    <rect class="cls-1" x="943.62" y="520.44" width="20.41" height="153.73"/>
    <path class="cls-1" d="m1003.87,624.75l19.25-1.7c.92,7.69,3.04,14,6.38,18.92,3.33,4.93,8.51,8.91,15.53,11.95,7.02,3.03,14.91,4.55,23.68,4.54,7.79,0,14.66-1.16,20.62-3.47,5.96-2.31,10.4-5.48,13.3-9.49,2.91-4.03,4.36-8.42,4.36-13.17,0-4.83-1.41-9.03-4.22-12.63-2.81-3.6-7.44-6.62-13.9-9.06-4.14-1.61-13.3-4.09-27.47-7.48-14.18-3.38-24.1-6.57-29.78-9.58-7.37-3.84-12.87-8.6-16.48-14.3-3.61-5.69-5.43-12.08-5.44-19.14,0-7.76,2.2-15.01,6.62-21.76,4.41-6.75,10.86-11.87,19.34-15.37,8.48-3.5,17.92-5.26,28.3-5.26,11.43,0,21.52,1.82,30.25,5.48,8.73,3.66,15.46,9.06,20.16,16.18,4.7,7.13,7.24,15.2,7.6,24.22l-19.57,1.48c-1.06-9.71-4.63-17.06-10.7-22.01-6.07-4.96-15.04-7.44-26.88-7.43-12.35,0-21.35,2.27-26.99,6.78-5.64,4.51-8.46,9.95-8.46,16.31,0,5.52,2.01,10.07,6.01,13.63,3.93,3.57,14.19,7.21,30.79,10.94,16.59,3.73,27.97,6.99,34.15,9.78,8.98,4.12,15.61,9.34,19.9,15.66,4.28,6.32,6.43,13.61,6.43,21.86,0,8.18-2.34,15.89-7.03,23.13-4.7,7.23-11.44,12.87-20.24,16.9-8.8,4.02-18.71,6.04-29.72,6.05-13.96,0-25.66-2.01-35.1-6.06-9.44-4.05-16.84-10.14-22.21-18.28-5.37-8.14-8.2-17.35-8.49-27.62"/>
    <path class="cls-1" d="m1195.45,650.5l8.02,2.02c-1.68,6.57-4.7,11.58-9.07,15.03-4.37,3.46-9.71,5.18-16.02,5.18-6.54,0-11.85-1.32-15.95-3.96-4.09-2.65-7.21-6.49-9.36-11.52-2.13-5.03-3.21-10.43-3.21-16.2,0-6.3,1.19-11.79,3.6-16.47,2.41-4.69,5.84-8.25,10.29-10.68,4.45-2.43,9.35-3.66,14.7-3.66,6.07,0,11.17,1.53,15.31,4.61,4.14,3.07,7.02,7.4,8.65,12.98l-7.9,1.86c-1.41-4.39-3.46-7.6-6.13-9.6-2.69-2-6.04-3-10.1-3-4.66,0-8.56,1.12-11.68,3.35-3.13,2.23-5.32,5.21-6.59,8.97-1.26,3.76-1.9,7.62-1.9,11.61,0,5.14.76,9.62,2.28,13.45,1.51,3.84,3.84,6.7,7.01,8.6,3.17,1.89,6.61,2.84,10.31,2.83,4.49,0,8.29-1.3,11.41-3.88,3.12-2.59,5.22-6.42,6.33-11.51"/>
    <path class="cls-1" d="m1215.14,642.24c0-10.02,2.7-17.88,8.09-23.56,5.4-5.68,12.38-8.53,20.92-8.53,5.6,0,10.64,1.33,15.14,3.99,4.51,2.67,7.93,6.38,10.29,11.15,2.37,4.76,3.55,10.17,3.56,16.22,0,6.13-1.24,11.62-3.71,16.46-2.47,4.83-5.99,8.5-10.54,10.98-4.55,2.49-9.46,3.74-14.72,3.74-5.72,0-10.82-1.37-15.31-4.11-4.5-2.75-7.9-6.5-10.22-11.25-2.33-4.75-3.49-9.78-3.5-15.09m8.28.12c0,7.28,1.98,13.02,5.91,17.21,3.93,4.19,8.86,6.29,14.79,6.28,6.04,0,11.01-2.12,14.91-6.36,3.9-4.23,5.85-10.23,5.84-18.01,0-4.92-.84-9.21-2.51-12.88-1.67-3.67-4.11-6.51-7.33-8.53-3.21-2.01-6.82-3.02-10.81-3.02-5.69,0-10.57,1.95-14.66,5.84-4.09,3.89-6.13,10.38-6.12,19.48"/>
    <path class="cls-1" d="m1287.86,671.62l-.05-60.44,26.88-.02c5.41,0,9.51.54,12.33,1.63,2.82,1.07,5.07,3,6.75,5.75,1.68,2.74,2.52,5.77,2.53,9.1,0,4.29-1.38,7.9-4.16,10.85-2.79,2.93-7.08,4.81-12.91,5.61,2.13,1.01,3.74,2.01,4.84,3.01,2.35,2.14,4.58,4.82,6.67,8.04l10.56,16.44h-10.09s-8.03-12.55-8.03-12.55c-2.35-3.64-4.29-6.41-5.8-8.33-1.51-1.93-2.87-3.28-4.07-4.04-1.2-.77-2.43-1.3-3.67-1.6-.9-.19-2.4-.28-4.47-.28h-9.31s.02,26.84.02,26.84h-8.02Zm7.99-33.77h17.25c3.68-.01,6.54-.39,8.61-1.15,2.07-.75,3.64-1.96,4.71-3.62,1.08-1.67,1.61-3.47,1.61-5.42,0-2.86-1.04-5.21-3.12-7.05-2.08-1.84-5.37-2.76-9.87-2.76h-19.19s.02,20.01.02,20.01Z"/>
    <path class="cls-1" d="m1353.15,671.58l-.05-60.44,22.87-.02c4.02,0,7.1.19,9.22.57,2.98.49,5.48,1.43,7.5,2.81,2.01,1.4,3.63,3.34,4.86,5.84,1.23,2.5,1.85,5.25,1.85,8.24,0,5.14-1.64,9.49-4.92,13.05-3.27,3.56-9.2,5.35-17.78,5.35h-15.55s.02,24.58.02,24.58h-8.02Zm7.99-31.7h15.67c5.19-.01,8.87-.97,11.04-2.9,2.18-1.92,3.27-4.63,3.26-8.13,0-2.53-.64-4.69-1.92-6.49-1.29-1.79-2.98-2.98-5.07-3.56-1.36-.35-3.84-.53-7.49-.53h-15.51s.02,21.61.02,21.61Z"/>
    <path class="cls-5" d="m1212.27,802.64l-23.54-60.42h8.68s15.8,43.89,15.8,43.89c1.28,3.52,2.33,6.82,3.19,9.89.94-3.3,2.03-6.6,3.26-9.9l16.35-43.92h8.18s-23.68,60.45-23.68,60.45h-8.23Z"/>
    <path class="cls-5" d="m851.72,783.47l7.56-.67c.37,3.03,1.2,5.5,2.52,7.44,1.31,1.94,3.34,3.51,6.1,4.7,2.76,1.19,5.86,1.79,9.31,1.79,3.05,0,5.75-.46,8.1-1.36,2.35-.91,4.09-2.16,5.24-3.74,1.14-1.58,1.71-3.31,1.71-5.17,0-1.9-.56-3.55-1.66-4.97-1.11-1.42-2.93-2.61-5.47-3.57-1.62-.62-5.23-1.61-10.8-2.94-5.57-1.33-9.48-2.58-11.72-3.77-2.89-1.5-5.05-3.39-6.47-5.62-1.42-2.23-2.14-4.74-2.14-7.53,0-3.04.87-5.9,2.6-8.55,1.74-2.65,4.27-4.67,7.6-6.04,3.34-1.38,7.04-2.07,11.13-2.07,4.49,0,8.47.72,11.9,2.15,3.43,1.45,6.07,3.57,7.92,6.37,1.85,2.8,2.85,5.98,2.98,9.52l-7.68.58c-.42-3.82-1.82-6.71-4.22-8.66-2.38-1.94-5.9-2.92-10.57-2.92-4.86,0-8.39.9-10.61,2.67-2.22,1.76-3.32,3.9-3.32,6.4,0,2.18.78,3.97,2.36,5.36,1.54,1.41,5.58,2.84,12.11,4.3,6.52,1.46,10.99,2.74,13.42,3.85,3.53,1.62,6.13,3.67,7.82,6.16,1.69,2.49,2.53,5.35,2.53,8.59,0,3.22-.92,6.25-2.76,9.09-1.85,2.85-4.5,5.06-7.97,6.64-3.46,1.58-7.35,2.37-11.68,2.38-5.48,0-10.09-.79-13.79-2.38-3.71-1.6-6.62-3.99-8.74-7.19-2.11-3.2-3.22-6.82-3.34-10.86"/>
    <polygon class="cls-5" points="908.55 802.84 931.8 742.39 940.43 742.39 965.31 802.8 956.16 802.81 949.07 784.51 923.72 784.53 917.07 802.84 908.55 802.84"/>
    <path class="cls-5" d="m1026.59,802.76v-5.52c-2.78,4.34-6.87,6.52-12.29,6.52-3.5,0-6.72-.96-9.65-2.88-2.94-1.92-5.22-4.61-6.83-8.06-1.62-3.45-2.43-7.41-2.44-11.88,0-4.37.72-8.34,2.18-11.9,1.46-3.55,3.65-6.29,6.57-8.18,2.92-1.9,6.19-2.86,9.8-2.86,2.64,0,5.01.55,7.07,1.66,2.07,1.11,3.76,2.57,5.05,4.35l-.02-21.68h7.41s.05,60.43.05,60.43h-6.91Z"/>
    <path class="cls-5" d="m1079.51,788.63l7.7.95c-1.21,4.47-3.46,7.95-6.73,10.42-3.28,2.48-7.47,3.72-12.58,3.72-6.43,0-11.52-1.97-15.28-5.91-3.77-3.94-5.65-9.47-5.66-16.59,0-7.35,1.88-13.09,5.68-17.15,3.81-4.06,8.74-6.11,14.8-6.12,5.87,0,10.68,1.98,14.4,5.97,3.73,3.98,5.59,9.59,5.6,16.82,0,.43-.01,1.09-.04,1.97l-32.76.02c.29,4.82,1.65,8.49,4.11,11.05,2.46,2.56,5.52,3.83,9.18,3.83,2.73,0,5.07-.72,6.99-2.15,1.93-1.43,3.46-3.72,4.58-6.84"/>
    <path class="cls-5" d="m1172.77,781.48l8.02,2.02c-1.68,6.57-4.7,11.58-9.06,15.03-4.37,3.45-9.71,5.18-16.03,5.18-6.54,0-11.85-1.32-15.95-3.96-4.09-2.65-7.21-6.49-9.36-11.52-2.13-5.03-3.21-10.43-3.21-16.2,0-6.3,1.19-11.79,3.6-16.47,2.41-4.69,5.84-8.25,10.3-10.68,4.45-2.43,9.35-3.66,14.7-3.66,6.07,0,11.17,1.53,15.31,4.61,4.14,3.07,7.02,7.4,8.65,12.98l-7.9,1.85c-1.41-4.39-3.46-7.59-6.13-9.6-2.68-2-6.04-3-10.1-3-4.66,0-8.56,1.12-11.68,3.34-3.13,2.23-5.32,5.22-6.59,8.97-1.26,3.76-1.9,7.62-1.9,11.61,0,5.14.76,9.62,2.28,13.45,1.51,3.83,3.84,6.7,7.01,8.6,3.17,1.89,6.61,2.84,10.31,2.84,4.49,0,8.29-1.3,11.41-3.88,3.12-2.59,5.22-6.42,6.33-11.51"/>
    <path class="cls-6" d="m926.03,778.01h20.56s-6.34-16.74-6.34-16.74c-1.93-5.08-3.38-9.26-4.32-12.53-.76,3.88-1.84,7.72-3.25,11.54l-6.65,17.73Z"/>
    <path class="cls-6" d="m1003.05,780.94c0,5.6,1.2,9.79,3.57,12.57,2.38,2.78,5.18,4.16,8.4,4.16,3.26,0,6.02-1.33,8.29-3.98,2.27-2.65,3.41-6.7,3.41-12.14,0-5.99-1.18-10.39-3.49-13.19-2.32-2.8-5.17-4.2-8.56-4.19-3.31,0-6.07,1.35-8.29,4.04-2.22,2.69-3.32,6.94-3.32,12.74"/>
    <path class="cls-6" d="m1055.05,776.65l24.53-.02c-.33-3.68-1.27-6.45-2.82-8.29-2.37-2.85-5.45-4.28-9.22-4.28-3.42,0-6.29,1.14-8.63,3.43-2.32,2.28-3.61,5.33-3.86,9.15"/>
    <path class="cls-1" d="m467.71,713.62c-3.02-1.18-6.11-2.25-9.27-2.94-8.51-1.85-15.6-6.6-22.95-10.83-1.67-.96-3.31-2-4.78-3.22-4.57-3.76-6.48-8.68-5.72-14.49.97-7.43,2.18-14.81,3.2-22.23,1.05-7.67,1.9-15.38,3.06-23.04,1.1-7.19,2.21-14.41,3.84-21.49,1.75-7.58,3.54-15.07,2.94-22.95-.27-3.65-1.91-6.09-4.81-8.19-3.85-2.8-7.67-5.71-11.08-9-5.86-5.68-12.67-9.81-19.94-13.31-5.91-2.86-11.77-5.85-17.81-8.43-10.46-4.47-17.4-12.1-21.52-22.51-1.58-4-3.14-8.01-4.8-11.99-1.3-3.11-3.26-5.75-6.04-7.74-1.66-1.18-2.26-2.79-2.26-4.8.02-28.23.01-56.47.01-84.71,0-6.23.03-12.46-.03-18.69-.02-2.4.94-8.22,2.44-10.09,4.11-5.12,5.62-8.65,9.23-14.11,4.64-7.02,11.33-11.95,15.79-19.09.94-1.5.09-2.86,1.23-4.23,1.81-2.19,2.18-5.05,4.04-7.2.31-.36,4.36.18,4.78-.1.21.38,4.39-2.53,4.77-5.15.26-1.76-.34-3.39-1.26-4.86-1.08-1.73-2.46-3.25-3.73-4.84.03.62-6.54-1.34-9.26-.11-6.16,2.76-10.57,6.9-10.72,14.16-.06,2.54-1.26,4.27-3.14,5.88-3.26,2.81-6.32,5.87-9.5,8.77-1.28,1.16-2.68,2.18-4.43,3.59-.15-1.23-.28-1.79-.28-2.35,0-2.51.04-5.03.04-7.55-.04-27.26-.16-150.62-.21-203.27l-8.4.49c.05,55.83.16,186.1.23,218.23,0,2.54-.83,4.45-2.36,6.47-2.39,3.15-4.28,6.69-6.35,10.07-1.5,2.42-2.82,4.98-4.51,7.26-.97,1.32-2.37,2.56-3.85,3.26-13.39,6.35-26.76,12.72-39.35,20.58-.37.23-.8.34-1.52.63.08-.91.08-1.55.2-2.16.8-3.75,1.65-7.48,2.42-11.23.21-1.04.36-2.03,1.67-2.1,2.04-.09,2.27-1.52,2.26-3.06-.04-5.89-1.64-11.39-4.54-16.49-4.02-7.06-10.38-10.28-18.35-10.18-3.54.04-7.11.69-10.6,1.43-4.33.91-7.73,3.55-10.42,6.94-3.75,4.74-6.28,10.08-7.41,16.09-.81,4.26.5,7.75,3.47,10.66,1.5,1.46,2.38,3.02,2.79,5.08.64,3.17,1.51,6.32,2.51,9.4,1.37,4.17.4,7.99-1.43,11.7-.35.71-1.38,1.17-2.19,1.55-2.75,1.32-5.59,2.45-8.31,3.82-5.8,2.93-8.97,7.89-10.57,14-2.4,9.16-4.83,18.31-7.17,27.49-.82,3.2-.52,3.52,2.64,4.13,4.33.84,4.43,1.02,3.7,5.39-.37,2.16-.53,4.35-.98,6.49-.35,1.65-.82,3.33-1.58,4.84-2.04,4.09-3.3,8.35-3.53,12.93-.49,9.68,1.32,19,4.27,28.14,1.67,5.16,3.55,10.25,5.24,15.4.34,1.04.51,2.27.3,3.31-.91,4.46.25,8.68,1.3,12.91.05.2.1.39.17.58.55,1.44.83,3.89,1.71,4.13,2.2.6,4.67.29,7.03.16,2.73-.15,5.14-1.37,7.56-2.55,1.89-.93,2.44-1.76,1.73-3.77-.71-2.01-.93-3.9.12-5.94.34-.66,0-2.04-.52-2.71-1.44-1.89-3.03-3.7-4.77-5.31-2.05-1.9-3.36-4.16-3.74-6.84-.65-4.65-1.22-9.32-1.55-13.99-.59-8.39-.87-16.8-1.53-25.18-.46-5.85-.11-11.5,2.19-16.96.45-1.09.57-2.31.93-3.45.17-.52.57-1.38.86-1.37.56,0,1.25.38,1.65.82,1.86,2.06,3.43,4.46,5.51,6.25,4.62,3.98,8.01,8.77,10.61,14.22,2.18,4.59,5.81,7.52,10.87,8.49,1.88.36,3.02,1.3,3.77,3.1,1.21,2.86,2.74,5.58,4,8.43.47,1.06.88,2.33.75,3.43-.43,3.86-.81,7.77-1.79,11.51-.68,2.61-.58,4.88.34,7.33.44,1.19.63,2.55.59,3.83-.07,2.43.6,4.51,2.59,5.92,2.37,1.7,4.78,3.41,7.37,4.73,1.95.99,2.78,2.29,2.74,4.36-.1,4.7.8,9.23,2.6,13.57,2.88,6.97,7.76,12.12,14.47,15.51,9.98,5.04,20.69,6,31.64,5.37,1.97-.11,3.61.27,5.28,1.31,12.74,7.93,25.52,15.81,38.29,23.71,1.29.8,2.58,1.62,3.86,2.45,1,.66,1.03,1.39.54,2.53-2.79,6.65-5.69,13.27-8.11,20.05-2.61,7.3-3.14,14.89-1.52,22.54,1.75,8.22,3.59,16.43,5.39,24.64,2.32,10.5,2.84,21.13,2.25,31.82-.1,1.69-.64,3.39-1.16,5.02-1.89,5.88-.8,10.25,4.01,13.99,6.18,4.8,12.46,9.48,18.82,14.04,1.8,1.29,3.98,2.16,6.09,2.92,4.37,1.57,8.63.92,12.71-1.18,5.54-2.86,10.09-6.63,12.29-12.69,1.19-3.3.71-5.72-2.15-7.72-2.54-1.77-5.35-3.16-8.09-4.64-3.96-2.14-8.07-4.04-11.91-6.36-3.3-1.99-4.83-5.55-6.62-8.81-.51-.95-.05-1.63,1.02-1.52,5.62.56,10.43-2.31,15.6-3.63,5.57-1.42,11.14-2.41,16.91-2.39,8.16.03,16.15-1.25,23.87-3.91,1.52-.53,3-1.48,4.23-2.54,2.01-1.72,1.56-4.7-.92-5.66Zm-126.3-210.88c-3.52-.54-6.18-3.14-6.98-6.05-1.75-6.38-3.4-12.81-5.57-19.05-3.81-10.97-9.81-20.83-16.48-30.28-.99-1.41-.65-2.09.68-2.77,2.48-1.27,4.93-2.6,7.41-3.88,2.83-1.47,3.06-2,2.1-5.14-1.11-3.61-2.11-7.25-3.4-10.79-.73-2-.06-3.12,1.49-4.17,6.15-4.16,12.28-8.36,18.44-12.51.45-.3,1.19-.55,1.62-.37.33.13.52.96.53,1.47.07,29.68.11,59.36.15,89.04v4.51Zm67.09,121.21c-.44.13-.87.27-1.32.4-5.28-7.01-10.57-14.01-16.35-21.68,1.33.09,2.06-.07,2.58.18,4.54,2.24,9.09,4.46,13.54,6.87.94.51,2.14,1.72,2.15,2.62.02,3.86-.35,7.74-.6,11.61Z"/>
  </g>
  <g>
    <path d="m1410.91,600.94c.99-.18,2.43-.32,3.76-.32,2.09,0,3.47.41,4.39,1.24.74.68,1.19,1.71,1.19,2.91,0,1.98-1.26,3.31-2.84,3.85v.07c1.15.41,1.85,1.49,2.21,3.06.49,2.12.86,3.58,1.17,4.17h-2.03c-.25-.45-.59-1.73-.99-3.63-.45-2.09-1.28-2.88-3.06-2.95h-1.85v6.58h-1.96v-14.98Zm1.96,6.91h2c2.09,0,3.42-1.15,3.42-2.88,0-1.96-1.42-2.82-3.49-2.82-.95,0-1.6.07-1.94.16v5.54Z"/>
    <path d="m1416.06,622.62c-7.93,0-14.38-6.45-14.38-14.38s6.45-14.38,14.38-14.38,14.38,6.45,14.38,14.38-6.45,14.38-14.38,14.38Zm0-27.1c-7.01,0-12.72,5.71-12.72,12.72s5.71,12.72,12.72,12.72,12.72-5.71,12.72-12.72-5.71-12.72-12.72-12.72Z"/>
  </g>
</svg>